<?xml version="1.0" encoding="utf-8"?>
<!-- Generator: Adobe Illustrator 24.1.3, SVG Export Plug-In . SVG Version: 6.00 Build 0)  -->
<svg version="1.1" id="Layer_1" xmlns="http://www.w3.org/2000/svg" xmlns:xlink="http://www.w3.org/1999/xlink" x="0px" y="0px"
	 viewBox="0 0 1500 1500" style="enable-background:new 0 0 1500 1500;" xml:space="preserve">
<style type="text/css">
	.st0{fill:#FFFFFF;}
</style>
<g>
	<path class="st0" d="M750,1497.5c-100.91,0-198.81-19.76-290.96-58.74c-89.01-37.65-168.95-91.55-237.6-160.2
		c-68.65-68.65-122.55-148.59-160.2-237.6C22.26,948.81,2.5,850.91,2.5,750s19.76-198.81,58.74-290.96
		c37.65-89.01,91.55-168.95,160.2-237.6c68.65-68.65,148.59-122.55,237.6-160.2C551.19,22.26,649.09,2.5,750,2.5
		s198.81,19.76,290.96,58.74c89.01,37.65,168.95,91.55,237.6,160.2c68.65,68.65,122.55,148.59,160.2,237.6
		c38.98,92.15,58.74,190.05,58.74,290.96s-19.76,198.81-58.74,290.96c-37.65,89.01-91.55,168.95-160.2,237.6
		s-148.59,122.55-237.6,160.2C948.81,1477.74,850.91,1497.5,750,1497.5z M750.21,641.46c-72.23,0-105.13,56.41-105.13,108.82
		c0,52.35,32.9,108.68,105.13,108.68c72.23,0,105.13-56.41,105.13-108.82C855.34,697.8,822.45,641.46,750.21,641.46z"/>
	<path d="M750,5c100.58,0,198.14,19.7,289.99,58.54c44.14,18.67,86.72,41.78,126.55,68.69c39.45,26.65,76.55,57.26,110.26,90.97
		s64.32,70.81,90.97,110.26c26.91,39.83,50.02,82.4,68.69,126.55C1475.3,551.86,1495,649.42,1495,750s-19.7,198.14-58.54,289.99
		c-18.67,44.14-41.78,86.72-68.69,126.55c-26.65,39.45-57.26,76.55-90.97,110.26s-70.81,64.32-110.26,90.97
		c-39.83,26.91-82.4,50.02-126.55,68.69C948.14,1475.3,850.58,1495,750,1495s-198.14-19.7-289.99-58.54
		c-44.14-18.67-86.72-41.78-126.55-68.69c-39.45-26.65-76.55-57.26-110.26-90.97s-64.32-70.81-90.97-110.26
		c-26.91-39.83-50.02-82.4-68.69-126.55C24.7,948.14,5,850.58,5,750s19.7-198.14,58.54-289.99c18.67-44.14,41.78-86.72,68.69-126.55
		c26.65-39.45,57.26-76.55,90.97-110.26s70.81-64.32,110.26-90.97c39.83-26.91,82.4-50.02,126.55-68.69C551.86,24.7,649.42,5,750,5
		 M750.21,861.46c73.95,0,107.63-57.7,107.63-111.32c0-29.02-9.54-56.1-26.86-76.26c-19.63-22.84-47.56-34.92-80.78-34.92
		c-73.95,0-107.63,57.7-107.63,111.32c0,29.02,9.54,56.1,26.86,76.26C689.06,849.38,716.99,861.46,750.21,861.46 M750,0
		C335.79,0,0,335.79,0,750s335.79,750,750,750s750-335.79,750-750S1164.21,0,750,0L750,0z M750.21,856.46
		c-136.96,0-136.73-212.5,0-212.5C887.17,643.96,886.94,856.46,750.21,856.46L750.21,856.46z"/>
</g>
<g>
	<path class="st0" d="M750,1055c-81.47,0-158.06-31.73-215.67-89.33C476.73,908.06,445,831.47,445,750
		c0-81.47,31.73-158.06,89.33-215.67S668.53,445,750,445c81.47,0,158.06,31.73,215.67,89.33C1023.27,591.94,1055,668.53,1055,750
		c0,81.47-31.73,158.06-89.33,215.67C908.06,1023.27,831.47,1055,750,1055z M749.25,633c-73.95,0-112.63,58.51-112.63,116.32
		c0,57.74,38.69,116.18,112.63,116.18c73.95,0,112.63-58.51,112.63-116.32C861.88,691.45,823.2,633,749.25,633z"/>
	<path d="M750,455c39.83,0,78.47,7.8,114.82,23.17c35.13,14.86,66.68,36.13,93.78,63.23s48.37,58.65,63.23,93.78
		C1037.2,671.53,1045,710.17,1045,750c0,39.83-7.8,78.47-23.17,114.82c-14.86,35.13-36.13,66.68-63.23,93.78
		s-58.65,48.37-93.78,63.23C828.47,1037.2,789.83,1045,750,1045s-78.47-7.8-114.82-23.17c-35.13-14.86-66.68-36.13-93.78-63.23
		s-48.37-58.65-63.23-93.78C462.8,828.47,455,789.83,455,750c0-39.83,7.8-78.47,23.17-114.82c14.86-35.13,36.13-66.68,63.23-93.78
		s58.65-48.37,93.78-63.23C671.53,462.8,710.17,455,750,455 M749.25,875.5c80.51,0,122.63-63.54,122.63-126.32
		c0-32.6-10.82-63.16-30.48-86.04C818.84,636.88,786.98,623,749.25,623c-80.51,0-122.63,63.54-122.63,126.32
		c0,32.6,10.82,63.16,30.48,86.04C679.65,861.62,711.52,875.5,749.25,875.5 M750,435c-173.97,0-315,141.03-315,315
		s141.03,315,315,315s315-141.03,315-315S923.97,435,750,435L750,435z M749.25,855.5c-136.96,0-136.73-212.5,0-212.5
		C886.21,643,885.98,855.5,749.25,855.5L749.25,855.5z"/>
</g>
</svg>
