<svg id="Layer_2" data-name="Layer 2" xmlns="http://www.w3.org/2000/svg" viewBox="0 0 580 684"><defs><style>.cls-1{fill:#fff;}.cls-2{fill:none;stroke:#000;stroke-miterlimit:10;stroke-width:3px;}</style></defs><rect class="cls-1" x="165.5" y="1.5" width="261" height="89" rx="16.84"/><path d="M847.66,653A15.36,15.36,0,0,1,863,668.34v55.32A15.36,15.36,0,0,1,847.66,739H620.34A15.36,15.36,0,0,1,605,723.66V668.34A15.36,15.36,0,0,1,620.34,653H847.66m0-3H620.34A18.34,18.34,0,0,0,602,668.34v55.32A18.34,18.34,0,0,0,620.34,742H847.66A18.34,18.34,0,0,0,866,723.66V668.34A18.34,18.34,0,0,0,847.66,650Z" transform="translate(-438 -650)"/><polygon class="cls-1" points="2.48 657.5 131.91 409.5 464.04 409.5 577.66 657.5 2.48 657.5"/><path d="M901.07,1061l112.26,245H443l127.87-245H901.07m1.93-3H569L438,1309h580L903,1058Z" transform="translate(-438 -650)"/><polygon class="cls-1" points="159.21 656.5 221.33 500.5 372.39 500.5 424.91 656.5 159.21 656.5"/><path d="M809.31,1152l51.51,153H599.42l60.92-153h149m2.16-3H658.31L595,1308H865l-53.53-159Z" transform="translate(-438 -650)"/><rect class="cls-1" x="1.5" y="660.5" width="577" height="22"/><path d="M1015,1312v19H441v-19h574m3-3H438v25h580v-25Z" transform="translate(-438 -650)"/><rect class="cls-1" x="158.5" y="660.5" width="267" height="10"/><path d="M862,1312v7H598v-7H862m3-3H595v13H865v-13Z" transform="translate(-438 -650)"/><rect class="cls-1" x="172.5" y="12.5" width="247" height="535"/><path d="M856,664v532H612V664H856m3-3H609v538H859V661Z" transform="translate(-438 -650)"/><rect class="cls-1" x="184.5" y="12.5" width="223" height="535"/><path d="M844,664v532H624V664H844m3-3H621v538H847V661Z" transform="translate(-438 -650)"/><rect class="cls-1" x="181.5" y="155.5" width="229" height="392"/><path d="M847,807v389H621V807H847m3-3H618v395H850V804Z" transform="translate(-438 -650)"/><rect class="cls-1" x="262.5" y="127.5" width="61" height="49"/><path d="M760,779v46H702V779h58m3-3H699v52h64V776Z" transform="translate(-438 -650)"/><rect class="cls-1" x="120.5" y="312.5" width="349" height="35"/><path d="M906,964v32H560V964H906m3-3H557v38H909V961Z" transform="translate(-438 -650)"/><rect class="cls-1" x="205.5" y="570.5" width="178" height="15"/><path d="M820,1222v12H645v-12H820m3-3H642v18H823v-18Z" transform="translate(-438 -650)"/><path class="cls-1" d="M810.08,1202.5a21.43,21.43,0,0,1-10.66-2.83l-10.32-5.93A28.29,28.29,0,0,0,775,1190H689.6a28.37,28.37,0,0,0-13.86,3.61l-11,6.17a21.32,21.32,0,0,1-10.47,2.73H609.41c-8.19,0-14.86-6.38-14.86-14.21V872.43A38.14,38.14,0,0,1,611,841.36l12.64-8.87a189.78,189.78,0,0,1,216.76,0L853,841.36a38.14,38.14,0,0,1,16.43,31.07v315.86c0,7.83-6.67,14.21-14.86,14.21Z" transform="translate(-438 -650)"/><path d="M732,800a186.08,186.08,0,0,1,107.51,33.71l12.65,8.88A36.64,36.64,0,0,1,868,872.43v315.86c0,7-6,12.71-13.36,12.71H810.08a19.9,19.9,0,0,1-9.91-2.63l-10.32-5.93a29.8,29.8,0,0,0-14.84-4H689.6a29.89,29.89,0,0,0-14.59,3.8l-11,6.18a20,20,0,0,1-9.74,2.53H609.41c-7.37,0-13.36-5.7-13.36-12.71V872.43a36.64,36.64,0,0,1,15.79-29.84l12.65-8.88A186.08,186.08,0,0,1,732,800m0-3a190,190,0,0,0-109.24,34.26l-12.64,8.87a39.53,39.53,0,0,0-17.07,32.3v315.86c0,8.68,7.32,15.71,16.36,15.71h44.88a22.91,22.91,0,0,0,11.21-2.92l11-6.17a26.77,26.77,0,0,1,13.12-3.42H775a26.83,26.83,0,0,1,13.35,3.55l10.32,5.93a22.87,22.87,0,0,0,11.4,3h44.51c9,0,16.36-7,16.36-15.71V872.43a39.53,39.53,0,0,0-17.07-32.3l-12.64-8.87A190,190,0,0,0,732,797Z" transform="translate(-438 -650)"/><path class="cls-1" d="M804.49,1187.92a19.73,19.73,0,0,1-9.84-2.61l-9.58-5.51a26.44,26.44,0,0,0-13.14-3.49H692.64a26.43,26.43,0,0,0-12.92,3.37l-10.19,5.73a19.87,19.87,0,0,1-9.68,2.51H618.19c-7.55,0-13.69-5.87-13.69-13.08V881.6a35.3,35.3,0,0,1,15.21-28.75l11.74-8.24a176.09,176.09,0,0,1,201.1,0l11.74,8.24A35.3,35.3,0,0,1,859.5,881.6v293.24c0,7.21-6.14,13.08-13.69,13.08Z" transform="translate(-438 -650)"/><path d="M732,814.58a172.53,172.53,0,0,1,99.69,31.26l11.74,8.23A33.83,33.83,0,0,1,858,881.6v293.24c0,6.39-5.47,11.58-12.19,11.58H804.49a18.2,18.2,0,0,1-9.09-2.41l-9.59-5.51a27.87,27.87,0,0,0-13.88-3.69H692.64a27.88,27.88,0,0,0-13.65,3.56l-10.2,5.73a18.3,18.3,0,0,1-8.94,2.32H618.19c-6.72,0-12.19-5.19-12.19-11.58V881.6a33.83,33.83,0,0,1,14.57-27.53l11.74-8.23A172.53,172.53,0,0,1,732,814.58m0-3a176.4,176.4,0,0,0-101.41,31.8l-11.74,8.24a36.68,36.68,0,0,0-15.85,30v293.24c0,8.05,6.8,14.58,15.19,14.58h41.66a21.21,21.21,0,0,0,10.41-2.71l10.2-5.73a24.94,24.94,0,0,1,12.18-3.17h79.29a24.91,24.91,0,0,1,12.39,3.29l9.58,5.51a21.26,21.26,0,0,0,10.59,2.81h41.32c8.39,0,15.19-6.53,15.19-14.58V881.6a36.68,36.68,0,0,0-15.85-30l-11.74-8.24A176.4,176.4,0,0,0,732,811.58Z" transform="translate(-438 -650)"/><path class="cls-1" d="M764.19,1274.5a20.79,20.79,0,0,1-4.05-.38l-4.38-5-.47-.11a27.22,27.22,0,0,0-6-.64H713a27.06,27.06,0,0,0-5.91.62l-.45.1-4.66,5a21.13,21.13,0,0,1-4,.37H678.89c-3.2,0-5.09-.87-5.45-1.29v-53.42c0-1.15,1.9-2.84,6.16-4l5.37-1.51c13.44-3.76,29.36-5.75,46-5.75s32.59,2,46,5.75l5.37,1.51c4.26,1.19,6.16,2.88,6.16,4v53.42c-.36.42-2.25,1.29-5.45,1.29Z" transform="translate(-438 -650)"/><path d="M731,1210c16.54,0,32.32,2,45.62,5.7l5.38,1.5c3.7,1,4.9,2.31,5.06,2.65v52.53a11,11,0,0,1-3.95.62H764.19a19.85,19.85,0,0,1-3.26-.26l-3.72-4.24-.64-.73-.94-.21a28.55,28.55,0,0,0-6.35-.68H713a28.86,28.86,0,0,0-6.24.65l-.91.21-.63.68-4,4.33a20.84,20.84,0,0,1-3.23.25H678.89a11,11,0,0,1-3.95-.62v-52.53c.16-.34,1.36-1.61,5.06-2.65l5.38-1.5c13.3-3.73,29.08-5.7,45.62-5.7m0-3c-16.3,0-32.61,1.94-46.43,5.81l-5.38,1.5c-4.56,1.28-7.25,3.31-7.25,5.48v53.55c0,1.47,3.11,2.66,6.95,2.66H698a22.37,22.37,0,0,0,4.76-.49l4.67-5a25.9,25.9,0,0,1,5.58-.58h36.3a26,26,0,0,1,5.67.6l4.39,5a22.48,22.48,0,0,0,4.85.51h18.92c3.84,0,6.95-1.19,6.95-2.66v-53.55c0-2.17-2.69-4.2-7.25-5.48l-5.38-1.5c-13.82-3.87-30.13-5.81-46.43-5.81Z" transform="translate(-438 -650)"/><polygon class="cls-1" points="394.5 653.5 394.5 577.04 452.5 577.02 452.5 304.5 460.5 304.5 460.5 584.51 403.5 584.76 403.5 653.5 394.5 653.5"/><path d="M897,956v277l-54,.25h-3V1302h-6v-73.46l55,0h3V956h5m3-3H889v272.52l-58,0V1305h12v-68.74l57-.26V953Z" transform="translate(-438 -650)"/><polygon class="cls-1" points="184.5 653.5 184.5 584.76 127.5 584.51 127.5 304.5 135.5 304.5 135.5 577.02 193.5 577.04 193.5 653.5 184.5 653.5"/><path d="M572,956v272.52h3l55,0V1302h-6v-68.73h-3l-54-.25V956h5m3-3H564v283l57,.26V1305h12v-79.46l-58,0V953Z" transform="translate(-438 -650)"/><circle class="cls-1" cx="292.5" cy="337.5" r="60"/><path d="M730.5,929A58.5,58.5,0,1,1,672,987.5,58.56,58.56,0,0,1,730.5,929m0-3A61.5,61.5,0,1,0,792,987.5,61.49,61.49,0,0,0,730.5,926Z" transform="translate(-438 -650)"/><circle class="cls-1" cx="730.5" cy="987.5" r="51.48" transform="matrix(0.16, -0.99, 0.99, 0.16, -799.26, 900.39)"/><path d="M730.5,937.52a50,50,0,1,1-50,50,50,50,0,0,1,50-50m0-3a53,53,0,1,0,53,53,53,53,0,0,0-53-53Z" transform="translate(-438 -650)"/><circle class="cls-1" cx="292.28" cy="337.5" r="28.34"/><path d="M730.28,960.66a26.84,26.84,0,1,1-26.83,26.84,26.87,26.87,0,0,1,26.83-26.84m0-3a29.84,29.84,0,1,0,29.84,29.84,29.83,29.83,0,0,0-29.84-29.84Z" transform="translate(-438 -650)"/><rect class="cls-1" x="274.5" y="571.5" width="38" height="45"/><path d="M749,1223v42H714v-42h35m3-3H711v48h41v-48Z" transform="translate(-438 -650)"/><line class="cls-2" x1="235.5" y1="592.5" x2="350.5" y2="592.5"/><rect class="cls-1" x="212.5" y="539.5" width="12" height="56"/><path d="M661,1191v53h-9v-53h9m3-3H649v59h15v-59Z" transform="translate(-438 -650)"/><rect class="cls-1" x="365.5" y="539.5" width="12" height="56"/><path d="M814,1191v53h-9v-53h9m3-3H802v59h15v-59Z" transform="translate(-438 -650)"/><rect class="cls-1" x="280.5" y="180.5" width="22" height="29"/><path d="M739,832v26H720V832h19m3-3H717v32h25V829Z" transform="translate(-438 -650)"/><circle class="cls-1" cx="387" cy="509" r="16.5"/><path d="M825,1144a15,15,0,1,1-15,15,15,15,0,0,1,15-15m0-3a18,18,0,1,0,18,18,18,18,0,0,0-18-18Z" transform="translate(-438 -650)"/><circle class="cls-1" cx="387" cy="509" r="7.5"/><path d="M825,1153a6,6,0,1,1-6,6,6,6,0,0,1,6-6m0-3a9,9,0,1,0,9,9,9,9,0,0,0-9-9Z" transform="translate(-438 -650)"/><circle class="cls-1" cx="251.5" cy="423.5" r="9"/><path d="M689.5,1066a7.5,7.5,0,1,1-7.5,7.5,7.5,7.5,0,0,1,7.5-7.5m0-3a10.5,10.5,0,1,0,10.5,10.5,10.5,10.5,0,0,0-10.5-10.5Z" transform="translate(-438 -650)"/></svg>