<svg id="Layer_1" data-name="Layer 1" xmlns="http://www.w3.org/2000/svg" viewBox="0 0 612 620"><defs><style>.cls-1{fill:#fff;}</style></defs><path class="cls-1" d="M439,361V981h612V361Zm495,31.52h42v38H934Zm-60,0h42v38H874Zm-60,0h42v38H814Zm-60,0h42v38H754Zm-60,0h42v38H694Zm-60,0h42v38H634Zm-60,0h42v38H574Zm-60,0h42v38H514Zm-60,0h42v38H454Zm42,561H454v-38h42Zm60,0H514v-38h42Zm60,0H574v-38h42Zm60,0H634v-38h42Zm60,0H694v-38h42Zm60,0H754v-38h42Zm60,0H814v-38h42Zm60,0H874v-38h42Zm60,0H934v-38h42ZM511.71,882A36.72,36.72,0,0,1,475,845.29V493.71A36.72,36.72,0,0,1,511.71,457H981.29A36.72,36.72,0,0,1,1018,493.71V845.29A36.72,36.72,0,0,1,981.29,882ZM1036,953.48H994v-38h42Zm0-523H994v-38h42Z" transform="translate(-439 -361)"/></svg>